<svg width="301" height="301" viewBox="0 0 301 301" fill="none" xmlns="http://www.w3.org/2000/svg">
<g opacity="0.15" clip-path="url(#clip0_1_2)">
<path d="M150.506 0.133787C67.5062 0.133786 0.306155 67.3338 0.306154 150.334C0.306153 233.334 67.5061 300.134 150.506 300.134C233.506 300.134 300.306 233.334 300.306 150.334C300.306 67.3338 233.506 0.133788 150.506 0.133787Z" fill="url(#paint0_linear_1_2)"/>
<path d="M180.906 24.9333C181.506 25.7333 180.706 26.5333 180.306 27.1333C178.506 29.3333 179.306 32.5333 180.106 35.3333C180.306 36.1333 180.506 36.9333 180.706 37.5333C181.506 41.7333 179.506 46.5333 175.506 50.3333C172.706 52.9333 172.706 56.7333 175.706 61.1333C179.906 67.3333 180.106 76.5333 177.906 82.3333C175.706 88.5333 169.906 94.7333 162.306 93.1333C159.506 92.5333 157.106 90.7333 155.506 88.1333C154.106 85.7333 153.306 82.7333 153.306 79.3333C153.306 76.7333 153.706 73.9333 154.706 71.1333C156.906 64.1333 160.106 61.3333 162.306 59.3333C163.106 58.5333 163.906 57.9333 164.506 57.1333C165.506 55.7333 165.906 54.3333 166.506 52.5333C167.306 49.9333 168.106 47.1333 171.106 45.1333C174.506 42.7333 176.106 40.1333 174.706 32.9333C173.906 29.3333 178.306 25.1333 179.506 24.5333C179.906 24.3333 180.706 24.5333 180.906 24.9333ZM176.706 32.5333C178.106 39.7333 176.906 43.5333 172.306 46.7333C169.906 48.3333 169.306 50.7333 168.506 53.1333C167.906 54.9333 167.506 56.7333 166.306 58.3333C165.706 59.3333 164.706 60.1333 163.906 60.9333C161.706 62.9333 158.906 65.3333 156.906 71.7333C155.106 77.5333 155.306 83.3333 157.506 87.1333C158.706 89.3333 160.706 90.7333 162.906 91.3333C169.306 92.7333 174.306 87.3333 176.306 81.9333C177.106 79.7333 177.506 77.1333 177.506 74.3333C177.506 70.3333 176.506 65.9333 174.306 62.5333C169.306 55.1333 172.706 50.7333 174.306 49.1333C177.906 45.9333 179.506 41.7333 178.906 38.1333C178.706 37.5333 178.506 36.7333 178.506 35.9333C178.106 34.1333 177.506 32.1333 177.706 30.3333C176.706 30.9333 176.506 31.7333 176.706 32.5333Z" fill="white"/>
<path d="M207.706 229.534C212.306 250.534 209.306 272.534 199.106 291.534L196.706 296.134L193.306 297.934L197.506 290.734C207.506 272.134 210.306 250.734 205.906 230.134C195.306 182.334 148.306 152.334 100.706 162.734C63.7064 170.934 36.1064 201.734 31.9064 239.534L31.3064 247.534L29.7064 241.934L29.9064 239.334C34.1064 200.734 62.3064 169.134 100.106 160.934C148.906 150.134 197.106 180.934 207.706 229.534Z" fill="white"/>
<path d="M98.7051 220.934C98.1051 218.534 97.9051 216.334 97.9051 214.134C97.9051 199.534 108.105 186.334 122.905 183.134C140.105 179.334 156.905 190.134 160.705 207.334C161.305 209.734 161.505 211.934 161.505 214.134C161.505 228.734 151.305 241.934 136.505 245.134C119.305 248.934 102.505 237.934 98.7051 220.934ZM136.105 243.134C149.705 240.134 159.505 227.934 159.505 214.134C159.505 211.934 159.305 209.734 158.705 207.734C155.105 191.734 139.305 181.534 123.305 185.134C109.705 188.134 99.9051 200.334 99.9051 214.134C99.9051 216.334 100.105 218.534 100.705 220.534C104.105 236.534 120.105 246.734 136.105 243.134Z" fill="white"/>
<path d="M170.307 122.133L158.507 133.933L170.307 145.733C170.707 146.133 170.707 146.733 170.307 147.133C169.907 147.533 169.307 147.533 168.907 147.133L157.107 135.333L145.707 146.733C145.307 147.133 144.707 147.133 144.307 146.733C144.107 146.533 144.107 146.333 144.107 145.933C144.107 145.533 144.107 145.333 144.307 145.133L155.707 133.733L144.307 122.333C144.107 122.133 144.107 121.933 144.107 121.533C144.107 121.133 144.107 120.933 144.307 120.733C144.707 120.333 145.307 120.333 145.707 120.733L157.107 132.133L168.907 120.333C169.307 119.933 169.907 119.933 170.307 120.333C170.707 120.733 170.707 121.733 170.307 122.133Z" fill="white"/>
</g>
<defs>
<linearGradient id="paint0_linear_1_2" x1="150.306" y1="300.134" x2="150.306" y2="0.133787" gradientUnits="userSpaceOnUse">
<stop stop-color="#A850CE"/>
<stop offset="1" stop-color="#FE8C8C"/>
</linearGradient>
<clipPath id="clip0_1_2">
<rect width="300" height="300" fill="white" transform="matrix(1.19249e-08 -1 -1 -1.19249e-08 300.306 300.134)"/>
</clipPath>
</defs>
</svg>
