<svg width="301" height="309" viewBox="0 0 301 309" fill="none" xmlns="http://www.w3.org/2000/svg">
<g opacity="0.15" clip-path="url(#clip0_1_2)">
<path d="M300.306 153.849C300.306 239.092 233.106 308.108 150.106 308.108C67.1062 308.108 0.306152 239.092 0.306152 153.849C0.306152 68.6054 67.1062 0 150.106 0C233.106 0 300.306 68.6054 300.306 153.849Z" fill="url(#paint0_linear_1_2)"/>
<path d="M125.506 186.713C122.906 186.713 120.506 186.302 118.106 185.48C114.106 184.043 111.106 181.167 109.506 177.47C105.306 167.199 112.106 157.545 120.306 152.821C127.706 148.302 140.306 146.043 150.106 150.356C159.706 154.67 164.106 150.562 165.706 147.686C169.906 141.113 175.906 137.005 181.906 137.005C182.906 137.005 184.106 137.005 185.106 137.21C189.306 137.416 194.306 137.826 196.906 134.54C197.506 133.718 198.306 132.691 199.306 133.102C199.506 133.102 200.106 133.924 199.906 134.745C199.506 136.594 195.106 143.783 189.906 143.783C179.306 143.783 175.906 146.453 173.506 152.205C171.506 156.724 167.906 158.572 164.506 160.421C162.306 161.653 160.306 162.68 158.506 164.324C157.506 165.351 156.906 166.583 155.906 168.021C153.706 171.924 150.706 177.059 141.706 181.989C136.106 185.07 130.506 186.713 125.506 186.713ZM138.306 149.945C131.906 149.945 125.706 151.794 121.306 154.464C113.906 158.778 107.706 167.61 111.506 176.648C112.706 179.935 115.306 182.194 118.906 183.426C124.906 185.686 133.106 184.453 140.706 180.14C149.306 175.416 152.106 170.691 154.106 166.994C154.906 165.556 155.906 164.118 156.906 162.886C158.706 160.832 161.106 159.599 163.306 158.367C166.506 156.724 169.706 154.875 171.506 150.972C174.706 143.578 179.506 141.113 189.706 141.113C191.506 141.113 193.306 139.88 194.706 138.237C191.706 139.47 187.906 139.264 184.906 139.059C183.706 139.059 182.706 138.853 181.706 138.853C176.306 138.853 170.906 142.551 167.106 148.508C165.506 151.178 160.306 157.135 148.906 151.999C145.906 150.767 142.106 149.945 138.306 149.945Z" fill="white"/>
<path d="M74.706 95.9236L74.306 95.102C74.106 94.075 74.106 89.1453 76.906 87.502C81.706 84.6264 82.506 82.3669 82.306 79.0804C82.106 76.2047 83.306 74.1507 84.506 72.302C85.306 71.0696 85.906 70.0426 86.106 68.8101C86.306 68.1939 86.306 67.3723 86.306 66.3453C86.306 63.8804 86.306 60.5939 89.506 55.4588C92.306 50.9399 96.106 47.8588 100.106 47.0372C102.506 46.6264 104.906 47.0372 106.706 48.475C111.506 52.3777 110.906 59.1561 108.306 63.8804C105.906 68.1939 100.306 72.9183 94.306 73.5345C90.306 73.9453 88.106 75.7939 87.906 78.6696C87.706 83.1885 85.706 86.8858 82.706 88.7345C82.306 88.9399 81.706 89.3507 81.106 89.5561C79.106 90.5831 76.906 91.6101 76.506 93.8696C76.506 94.4858 76.306 95.5128 75.306 95.5128L74.706 95.9236ZM101.906 49.0912C101.506 49.0912 101.106 49.0912 100.506 49.2967C97.106 49.9129 93.706 52.5831 91.306 56.6912C88.506 61.2102 88.506 64.0858 88.506 66.5507C88.506 67.5777 88.506 68.3993 88.306 69.4264C87.906 71.0696 87.106 72.302 86.306 73.5345C85.306 75.1777 84.306 76.821 84.506 79.0804C84.906 83.5993 83.106 86.475 78.106 89.3507C77.906 89.5561 77.706 89.5561 77.506 89.7615C78.506 89.1453 79.506 88.5291 80.506 88.1182C81.106 87.9128 81.506 87.502 82.106 87.2966C84.506 85.8588 86.106 82.7777 86.306 79.0804C86.306 77.2318 87.306 72.7128 94.506 71.8912C99.706 71.275 104.706 67.1669 106.906 63.2642C109.106 59.3615 109.706 53.6102 105.906 50.5291C104.706 49.5021 103.306 49.0912 101.906 49.0912Z" fill="white"/>
<path d="M275.906 169.46H274.906C273.906 169.46 269.506 167.406 269.106 164.119C268.306 158.368 266.706 156.93 263.506 155.903C260.706 155.081 259.306 153.027 258.106 151.384C257.306 150.357 256.706 149.124 255.706 148.508C255.106 148.097 254.506 147.687 253.506 147.481C251.306 146.454 248.306 145.222 244.906 140.497C241.906 136.184 240.506 131.254 241.306 127.351C241.906 124.887 243.106 122.833 245.106 121.6C250.506 118.314 256.306 121.6 259.506 125.914C262.506 129.816 264.706 137.005 263.106 142.757C262.106 146.66 262.906 149.535 265.506 150.768C269.506 152.616 272.106 155.903 272.706 159.395C272.706 160.011 272.906 160.627 272.906 161.243C273.106 163.503 273.306 166.173 275.106 167.2C275.706 167.611 276.506 168.022 276.306 169.049L275.906 169.46ZM249.706 122.011C248.506 122.011 247.306 122.422 246.106 123.038C244.706 123.86 243.706 125.503 243.306 127.351C242.706 130.843 243.906 135.157 246.506 139.06C249.506 143.373 252.106 144.605 254.306 145.427C255.106 145.838 256.106 146.249 256.906 146.66C258.106 147.687 259.106 148.919 259.906 149.946C261.106 151.589 262.106 153.027 264.106 153.849C268.306 155.081 270.306 157.957 271.106 163.708C271.106 163.914 271.306 164.119 271.306 164.324C271.106 163.092 270.906 162.065 270.906 160.833C270.906 160.216 270.906 159.6 270.706 159.189C270.306 156.314 268.106 153.643 264.706 152.205C263.106 151.384 259.306 148.919 261.306 141.73C262.706 136.595 260.706 130.227 258.106 126.735C256.106 124.065 252.906 122.011 249.706 122.011Z" fill="white"/>
<path d="M88.506 252.648C88.106 252.648 87.706 252.648 87.106 252.648C82.306 252.237 75.706 249.156 72.706 243.816C70.706 240.324 67.906 239.091 65.306 240.118C61.306 241.762 57.106 241.762 54.306 239.708C53.906 239.297 53.306 238.886 52.906 238.475C51.106 237.037 49.106 235.394 47.106 236.01C46.506 236.216 45.506 236.421 45.106 235.6L44.706 234.983L45.306 234.367C46.106 233.751 50.506 231.697 53.106 233.545C57.706 236.832 59.906 236.627 62.706 234.983C65.106 233.545 67.506 233.751 69.706 234.162C71.106 234.367 72.306 234.573 73.506 234.162C74.106 233.956 74.906 233.751 75.706 233.34C77.906 232.313 80.906 230.875 86.706 231.697C91.906 232.313 96.306 234.573 98.506 238.064C99.906 240.118 100.506 242.583 99.906 244.843C98.906 250.183 93.506 252.648 88.506 252.648ZM87.306 250.594C91.706 251.005 96.906 249.156 98.106 244.227C98.506 242.583 98.106 240.735 96.906 239.091C94.906 236.216 91.106 234.162 86.306 233.751C81.106 233.135 78.506 234.367 76.506 235.394C75.706 235.805 74.706 236.216 73.906 236.421C72.306 236.832 70.906 236.627 69.506 236.421C67.506 236.216 65.706 236.01 63.906 237.037C60.106 239.297 56.906 238.886 52.106 235.6C51.906 235.394 51.706 235.394 51.506 235.394C52.506 236.01 53.506 236.627 54.306 237.448C54.706 237.859 55.306 238.27 55.706 238.475C57.906 240.118 61.306 240.118 64.706 238.681C66.506 237.859 70.706 236.832 74.506 243.2C77.306 247.308 83.106 250.183 87.306 250.594Z" fill="white"/>
<path d="M237.706 283.459C237.506 283.459 237.306 283.459 237.106 283.254C225.906 272.367 212.306 256.962 212.306 256.756C211.106 255.524 210.506 253.881 210.306 252.032C210.306 250.183 210.906 248.54 212.106 247.308L217.706 241.556C219.506 239.708 219.506 236.832 217.706 234.983L209.306 226.356C207.706 224.713 205.106 224.508 203.306 225.945C170.106 251.416 124.506 248.129 95.1063 218.345C78.7063 201.708 69.9063 179.524 70.1063 155.902C70.5063 132.281 79.9063 110.302 96.9063 94.2806C128.306 64.2915 177.906 64.0861 209.706 93.8698C241.306 123.448 246.106 172.54 220.906 207.87C219.506 209.718 219.706 212.389 221.306 214.032L229.706 222.454C230.506 223.275 231.706 223.891 232.906 223.891C234.106 223.891 235.306 223.481 236.106 222.454L241.706 216.702C242.906 215.47 244.506 214.648 246.306 214.648C248.106 214.648 249.706 215.264 250.906 216.497C251.106 216.702 271.306 237.037 275.706 241.351C276.106 241.762 276.106 242.378 275.706 242.789C275.306 243.199 274.706 243.199 274.306 242.789C269.906 238.475 249.706 218.14 249.506 217.935C248.706 217.113 247.506 216.497 246.306 216.497C245.106 216.497 243.906 216.908 243.106 217.935L237.506 223.686C236.306 224.918 234.706 225.74 232.906 225.74C231.306 225.74 229.506 225.124 228.306 223.891L219.906 215.47C217.506 213.005 217.306 209.308 219.306 206.637C244.106 172.129 239.306 124.27 208.506 95.3077C177.506 66.3455 129.106 66.5509 98.5063 95.7185C81.9063 111.535 72.7063 132.897 72.3063 155.902C71.7063 178.702 80.3063 200.475 96.3063 216.497C125.106 245.664 169.506 248.745 201.906 224.097C204.506 222.043 208.106 222.248 210.506 224.713L218.906 233.34C221.506 236.01 221.506 240.118 218.906 242.789L213.306 248.54C212.506 249.362 211.906 250.594 211.906 251.827C211.906 253.059 212.306 254.291 213.306 255.113C213.506 255.318 226.906 270.518 238.106 281.61C238.506 282.021 238.506 282.637 238.106 283.048C238.106 283.254 237.906 283.459 237.706 283.459ZM153.506 228.616C135.906 228.616 118.106 221.837 104.506 208.075C77.1063 180.345 76.7063 134.951 103.706 106.605C130.706 78.4644 174.906 78.0536 202.506 105.783C229.906 133.513 230.306 178.908 203.306 207.254C189.706 221.427 171.506 228.616 153.506 228.616ZM105.906 206.637C132.506 233.545 175.506 233.135 201.706 205.816C227.906 178.497 227.506 134.335 200.906 107.427C174.306 80.3131 131.306 80.7239 105.106 108.043C78.9063 135.362 79.3063 179.729 105.906 206.637Z" fill="white"/>
<path d="M257.506 247.513C257.306 247.513 257.106 247.513 256.906 247.308L243.506 234.573C243.106 234.162 243.106 233.546 243.506 233.135C243.906 232.724 244.506 232.724 244.906 233.135L258.306 245.87C258.706 246.281 258.706 246.897 258.306 247.308C258.106 247.513 257.906 247.513 257.506 247.513Z" fill="white"/>
</g>
<defs>
<linearGradient id="paint0_linear_1_2" x1="0.306152" y1="154.054" x2="300.306" y2="154.054" gradientUnits="userSpaceOnUse">
<stop stop-color="#A850CE"/>
<stop offset="1" stop-color="#FE8C8C"/>
</linearGradient>
<clipPath id="clip0_1_2">
<rect width="300" height="308.108" fill="white" transform="translate(0.306152)"/>
</clipPath>
</defs>
</svg>
