<svg width="15" height="26" viewBox="0 0 15 26" fill="none" xmlns="http://www.w3.org/2000/svg">
<path d="M13.7121 0.0536837H10.4556C9.63877 0.00754194 8.82156 0.136717 8.05908 0.432493C7.29659 0.728268 6.60657 1.18376 6.03558 1.76824C5.46458 2.35272 5.0259 3.05258 4.74913 3.8206C4.47236 4.58862 4.36395 5.40692 4.4312 6.2203V9.06297H1.15706C1.08974 9.06297 1.02309 9.07619 0.960895 9.10189C0.898703 9.12759 0.842194 9.16526 0.794594 9.21274C0.746995 9.26023 0.709236 9.3166 0.683475 9.37865C0.657714 9.44069 0.644455 9.50719 0.644455 9.57434V13.6942C0.644455 13.8298 0.698462 13.9599 0.794594 14.0558C0.890726 14.1517 1.02111 14.2056 1.15706 14.2056H4.43246V24.5998C4.43229 24.667 4.44544 24.7336 4.47114 24.7957C4.49684 24.8579 4.53459 24.9143 4.58223 24.9618C4.62986 25.0093 4.68643 25.047 4.7487 25.0726C4.81097 25.0983 4.8777 25.1114 4.94506 25.1112H9.21677C9.28409 25.1112 9.35074 25.098 9.41294 25.0723C9.47513 25.0466 9.53164 25.0089 9.57924 24.9614C9.62684 24.914 9.6646 24.8576 9.69036 24.7955C9.71612 24.7335 9.72938 24.667 9.72938 24.5998V14.2043H13.5588C13.6262 14.2045 13.6929 14.1914 13.7552 14.1657C13.8175 14.1401 13.874 14.1024 13.9217 14.0549C13.9693 14.0074 14.0071 13.951 14.0328 13.8888C14.0585 13.8267 14.0716 13.7601 14.0714 13.6929V9.57936C14.0714 9.5122 14.0582 9.44571 14.0324 9.38366C14.0067 9.32162 13.9689 9.26524 13.9213 9.21776C13.8737 9.17027 13.8172 9.1326 13.755 9.10691C13.6928 9.08121 13.6262 9.06798 13.5588 9.06798H9.72812V6.65272C9.72812 5.4946 10.0045 4.90676 11.5172 4.90676H13.7109C13.8466 4.90643 13.9767 4.85241 14.0725 4.75654C14.1684 4.66068 14.2222 4.53079 14.2222 4.39539V0.570076C14.2229 0.50271 14.2102 0.435878 14.1849 0.373419C14.1596 0.310959 14.1221 0.254104 14.0747 0.206119C14.0273 0.158134 13.9709 0.119965 13.9087 0.0938054C13.8464 0.0676457 13.7796 0.0540107 13.7121 0.0536837Z" fill="#5A5C61" fill-opacity="0.5"/>
</svg>
