<svg width="27" height="27" viewBox="0 0 27 27" fill="none" xmlns="http://www.w3.org/2000/svg">
<path fill-rule="evenodd" clip-rule="evenodd" d="M13.5238 6.57315C12.2326 6.57315 10.9703 6.95605 9.89671 7.67341C8.82309 8.39078 7.98633 9.41039 7.4922 10.6033C6.99807 11.7963 6.86877 13.1089 7.12067 14.3753C7.37258 15.6418 7.99437 16.805 8.9074 17.7181C9.82044 18.6311 10.9837 19.2529 12.2501 19.5048C13.5165 19.7567 14.8292 19.6274 16.0222 19.1333C17.2151 18.6392 18.2347 17.8024 18.9521 16.7288C19.6694 15.6551 20.0523 14.3929 20.0523 13.1017C20.0523 11.3702 19.3645 9.70966 18.1402 8.48532C16.9158 7.26098 15.2553 6.57315 13.5238 6.57315ZM13.5238 17.1807C12.7167 17.1807 11.9278 16.9414 11.2568 16.493C10.5857 16.0446 10.0627 15.4073 9.75386 14.6617C9.44502 13.9161 9.3642 13.0956 9.52165 12.3041C9.6791 11.5125 10.0677 10.7855 10.6384 10.2148C11.2091 9.64412 11.9362 9.25549 12.7277 9.09805C13.5192 8.9406 14.3397 9.02139 15.0853 9.33024C15.831 9.63908 16.4682 10.1621 16.9166 10.8331C17.365 11.5042 17.6043 12.2931 17.6043 13.1002C17.6031 14.182 17.1728 15.2192 16.4078 15.9842C15.6428 16.7492 14.6056 17.1795 13.5238 17.1807Z" fill="#5A5C61" fill-opacity="0.5"/>
<path d="M21.4089 6.08268C21.4089 6.5627 21.0198 6.95183 20.5398 6.95183C20.0598 6.95183 19.6706 6.5627 19.6706 6.08268C19.6706 5.60267 20.0598 5.21354 20.5398 5.21354C21.0198 5.21354 21.4089 5.60267 21.4089 6.08268Z" fill="#5A5C61" fill-opacity="0.5"/>
<path fill-rule="evenodd" clip-rule="evenodd" d="M18.4183 0.0445557H8.62621C6.46229 0.0449621 4.38712 0.904755 2.857 2.43488C1.32688 3.965 0.467088 6.04017 0.466681 8.20409V17.9961C0.467088 20.1601 1.32688 22.2352 2.857 23.7653C4.38712 25.2955 6.46229 26.1553 8.62621 26.1557H18.4183C20.5822 26.1553 22.6574 25.2955 24.1875 23.7653C25.7176 22.2352 26.5774 20.1601 26.5778 17.9961V8.20409C26.5774 6.04017 25.7176 3.965 24.1875 2.43488C22.6574 0.904755 20.5822 0.0449621 18.4183 0.0445557ZM24.1298 17.9961C24.1282 19.5104 23.5259 20.9622 22.4551 22.033C21.3844 23.1038 19.9326 23.706 18.4183 23.7077H8.62621C7.11272 23.7048 5.66209 23.102 4.59232 22.0314C3.52255 20.9607 2.92091 19.5096 2.91929 17.9961V8.20409C2.92213 6.69139 3.5243 5.24146 4.59394 4.17182C5.66358 3.10218 7.11351 2.5 8.62621 2.49717H18.4183C19.9326 2.49879 21.3844 3.10106 22.4551 4.17182C23.5259 5.24259 24.1282 6.69439 24.1298 8.20868V17.9961Z" fill="#5A5C61" fill-opacity="0.5"/>
</svg>
