<svg width="30" height="17" viewBox="0 0 30 17" fill="none" xmlns="http://www.w3.org/2000/svg">
<path d="M29.6045 15.2954C29.575 15.2302 29.5421 15.1667 29.5058 15.1051C28.7066 13.848 27.7261 12.7155 26.5959 11.7442L26.5653 11.7136L26.5513 11.7039L26.536 11.6886H26.5152C25.8661 11.0702 25.4548 10.6535 25.2814 10.4387C25.1327 10.2746 25.0337 10.0718 24.9958 9.85372C24.9579 9.6357 24.9826 9.41141 25.0672 9.20686C25.4529 8.49669 25.9126 7.82914 26.4387 7.21531C26.855 6.6783 27.1852 6.24731 27.4291 5.92233C29.1863 3.59007 29.9481 2.09942 29.7144 1.45039L29.624 1.29902C29.4963 1.16898 29.3317 1.08123 29.1525 1.04764C28.8339 0.968746 28.5025 0.955983 28.1788 1.01015L23.7916 1.04069C23.6912 1.01576 23.5859 1.01865 23.487 1.04903L23.2895 1.09486L23.213 1.13236L23.1518 1.17818C23.0869 1.22135 23.03 1.27539 22.9835 1.3379C22.9201 1.41884 22.869 1.50869 22.8319 1.60454C22.3766 2.78501 21.8316 3.92901 21.2016 5.02656C20.8261 5.65522 20.4807 6.2001 20.1654 6.66118C19.9299 7.02203 19.6652 7.36296 19.3739 7.68055C19.1937 7.86896 19.0003 8.0444 18.7953 8.20553C18.6228 8.33793 18.4906 8.39394 18.3988 8.37357L18.1401 8.31246C17.9963 8.21931 17.8786 8.09124 17.7979 7.94027C17.703 7.75524 17.6435 7.5541 17.6227 7.34724C17.5921 7.10837 17.5744 6.90283 17.5698 6.73062C17.5652 6.5584 17.568 6.3149 17.5782 6.0001C17.5884 5.68531 17.5935 5.47236 17.5935 5.36126C17.5935 4.9761 17.6009 4.55945 17.6157 4.11133C17.6305 3.66321 17.6431 3.30583 17.6533 3.03918C17.6635 2.77531 17.6686 2.49755 17.6686 2.2059C17.674 1.97326 17.6563 1.74065 17.6157 1.5115C17.5802 1.34417 17.5265 1.18118 17.4557 1.02541C17.3907 0.875351 17.2822 0.748144 17.1442 0.660159C16.9859 0.565331 16.8136 0.495975 16.6337 0.454623C15.9569 0.319168 15.268 0.253091 14.5778 0.257416C13.3522 0.154465 12.1182 0.278292 10.9376 0.622671C10.7188 0.738403 10.5227 0.892727 10.359 1.07819C10.1735 1.30133 10.148 1.42308 10.2825 1.44345C10.5311 1.46063 10.7738 1.52737 10.9963 1.63971C11.2187 1.75206 11.4163 1.90774 11.5775 2.09757L11.6693 2.28089C11.7689 2.5026 11.8404 2.73588 11.8821 2.97529C11.9579 3.34138 12.0044 3.7129 12.0212 4.08634C12.0723 4.71907 12.0723 5.35488 12.0212 5.98761C11.9702 6.51536 11.9238 6.92598 11.8821 7.21948C11.8501 7.46692 11.7807 7.70807 11.6762 7.93471C11.6226 8.05 11.5618 8.16178 11.494 8.26941C11.4741 8.29992 11.4481 8.32594 11.4175 8.3458C11.2844 8.39709 11.1429 8.423 11.0002 8.42218C10.8105 8.4039 10.6305 8.32997 10.4828 8.20969C10.2499 8.0399 10.0379 7.84317 9.85128 7.62361C9.57709 7.29706 9.33006 6.94871 9.11267 6.58201C8.83447 6.13574 8.55025 5.60846 8.26 5.00016L8.01658 4.55854C7.8645 4.27429 7.65631 3.86135 7.39203 3.31972C7.12774 2.77808 6.89591 2.25312 6.69654 1.74482C6.62792 1.5489 6.5001 1.37905 6.33071 1.25873L6.25421 1.21291C6.17916 1.15928 6.0973 1.11584 6.01079 1.08374C5.89804 1.0378 5.78045 1.00472 5.66026 0.98514L1.48733 1.0157C1.33024 0.996167 1.17076 1.01198 1.02057 1.06196C0.870385 1.11194 0.733302 1.19483 0.619363 1.30457L0.55816 1.39623C0.522366 1.47202 0.506566 1.55567 0.512258 1.63927C0.517926 1.78248 0.549009 1.92355 0.604062 2.05591C1.21331 3.48545 1.87588 4.86453 2.59177 6.19315C3.30766 7.52177 3.92942 8.59115 4.45707 9.40129C4.98471 10.2123 5.52302 10.978 6.07199 11.6984C6.62096 12.4187 6.98401 12.8816 7.16113 13.0872C7.33917 13.2899 7.47827 13.4422 7.57842 13.5441L7.95955 13.9093C8.29454 14.228 8.65354 14.5205 9.03338 14.7843C9.53899 15.1453 10.0627 15.4805 10.6024 15.7884C11.2331 16.1407 11.9062 16.4114 12.6054 16.5939C13.3287 16.7977 14.0804 16.8826 14.831 16.8453H16.5822C16.8834 16.8376 17.171 16.7183 17.389 16.5106L17.4502 16.4342C17.5019 16.3478 17.5403 16.2542 17.5642 16.1564C17.6008 16.0206 17.6186 15.8804 17.6171 15.7398C17.6033 15.3442 17.6364 14.9485 17.7159 14.5607C17.7662 14.2869 17.8532 14.0211 17.9746 13.7705C18.0615 13.6061 18.1716 13.455 18.3015 13.3219C18.3778 13.2375 18.4648 13.1632 18.5602 13.101C18.5993 13.0808 18.6397 13.0632 18.6812 13.0483C18.8332 13.0162 18.9906 13.0209 19.1404 13.062C19.2902 13.103 19.428 13.1793 19.5422 13.2844C19.8882 13.5378 20.2004 13.8341 20.4714 14.1663C20.7607 14.5162 21.1084 14.9093 21.5146 15.3453C21.8366 15.7044 22.194 16.0302 22.5815 16.3175L22.8861 16.4995C23.1365 16.6414 23.4026 16.7537 23.679 16.8342C23.9521 16.9315 24.2455 16.9578 24.5316 16.9105L28.4264 16.8494C28.7375 16.8662 29.0475 16.8006 29.325 16.6592C29.5012 16.5748 29.6378 16.4254 29.7061 16.2425C29.7473 16.0726 29.7502 15.8957 29.7144 15.7245C29.6946 15.5777 29.6577 15.4337 29.6045 15.2954Z" fill="#5A5C61" fill-opacity="0.5"/>
</svg>
