<svg width="26" height="18" viewBox="0 0 26 18" fill="none" xmlns="http://www.w3.org/2000/svg">
<path d="M25.1585 3.77974C25.0849 2.94864 24.7243 2.17034 24.1401 1.58146C23.5558 0.99259 22.7853 0.630788 21.9637 0.55957C19.9989 0.394595 17.0867 0.22229 13.4935 0.22229C9.16635 0.22229 5.89999 0.401178 3.78827 0.568929C2.9628 0.636034 2.1874 0.99644 1.59926 1.58638C1.01113 2.17632 0.648169 2.95775 0.57461 3.79243C0.445342 5.16875 0.333344 6.98645 0.333344 9.15372C0.333344 11.267 0.444414 13.0526 0.573081 14.4118C0.647374 15.2458 1.01064 16.0263 1.59866 16.6154C2.18669 17.2045 2.9616 17.5642 3.78643 17.6311C5.89807 17.7988 9.16504 17.9778 13.4935 17.9778C17.0867 17.9778 19.9989 17.8055 21.9637 17.6405C22.7853 17.5693 23.5559 17.2075 24.1401 16.6187C24.7243 16.0298 25.0849 15.2515 25.1585 14.4204C25.2879 13.0513 25.4 11.2458 25.4 9.10007C25.4 6.95432 25.2879 5.14885 25.1585 3.77974ZM10.0792 12.8272V5.37295L17.3461 9.10007L10.0792 12.8272Z" fill="#5A5C61" fill-opacity="0.5"/>
</svg>
